<svg width="14" height="10" viewBox="0 0 14 10" fill="none" xmlns="http://www.w3.org/2000/svg">
<path fill-rule="evenodd" clip-rule="evenodd" d="M8.29697e-05 5.00063C8.29697e-05 4.86802 0.0527611 4.74085 0.146529 4.64708C0.240297 4.55331 0.367475 4.50063 0.500083 4.50063H12.2931L9.14608 1.35463C9.0996 1.30814 9.06272 1.25295 9.03756 1.19222C9.0124 1.13148 8.99945 1.06638 8.99945 1.00063C8.99945 0.934888 9.0124 0.869788 9.03756 0.809048C9.06272 0.748309 9.0996 0.693119 9.14608 0.646631C9.19257 0.600144 9.24776 0.563267 9.3085 0.538108C9.36924 0.512949 9.43434 0.5 9.50008 0.5C9.56583 0.5 9.63093 0.512949 9.69167 0.538108C9.75241 0.563267 9.8076 0.600144 9.85408 0.646631L13.8541 4.64663C13.9006 4.69308 13.9376 4.74825 13.9628 4.809C13.988 4.86974 14.001 4.93486 14.001 5.00063C14.001 5.0664 13.988 5.13152 13.9628 5.19226C13.9376 5.25301 13.9006 5.30819 13.8541 5.35463L9.85408 9.35463C9.8076 9.40112 9.75241 9.438 9.69167 9.46315C9.63093 9.48831 9.56583 9.50126 9.50008 9.50126C9.43434 9.50126 9.36924 9.48831 9.3085 9.46315C9.24776 9.438 9.19257 9.40112 9.14608 9.35463C9.0996 9.30814 9.06272 9.25295 9.03756 9.19221C9.0124 9.13148 8.99945 9.06637 8.99945 9.00063C8.99945 8.93489 9.0124 8.86979 9.03756 8.80905C9.06272 8.74831 9.0996 8.69312 9.14608 8.64663L12.2931 5.50063H0.500083C0.367475 5.50063 0.240297 5.44795 0.146529 5.35419C0.0527611 5.26042 8.29697e-05 5.13324 8.29697e-05 5.00063Z" fill="white"/>
</svg>
