<svg width="196" height="47" viewBox="0 0 196 47" fill="none" xmlns="http://www.w3.org/2000/svg">
<path opacity="0.6" d="M31.6131 36V38H33.6131V36H31.6131ZM22.9731 36H20.9731V38H22.9731V36ZM22.9731 9.12H24.9731V7.12H22.9731V9.12ZM10.9731 9.12V7.12H8.97313V9.12H10.9731ZM10.9731 36V38H12.9731V36H10.9731ZM2.33313 36H0.333125V38H2.33313V36ZM2.33313 2.4V0.399998H0.333125V2.4H2.33313ZM31.6131 2.4H33.6131V0.399998H31.6131V2.4ZM31.6131 34H22.9731V38H31.6131V34ZM24.9731 36V9.12H20.9731V36H24.9731ZM22.9731 7.12H10.9731V11.12H22.9731V7.12ZM8.97313 9.12V36H12.9731V9.12H8.97313ZM10.9731 34H2.33313V38H10.9731V34ZM4.33313 36V2.4H0.333125V36H4.33313ZM2.33313 4.4H31.6131V0.399998H2.33313V4.4ZM29.6131 2.4V36H33.6131V2.4H29.6131ZM45.3156 18L44.7436 16.0836L43.3156 16.5098V18H45.3156ZM45.3156 29.52H43.3156V31.52H45.3156V29.52ZM53.9556 17.52L55.3698 16.1058V16.1058L53.9556 17.52ZM45.3156 36V34H43.3156V36H45.3156ZM45.3156 44.16V46.16H47.3156V44.16H45.3156ZM36.9156 44.16H34.9156V46.16H36.9156V44.16ZM36.9156 10.56V8.56H34.9156V10.56H36.9156ZM44.3556 10.56L46.3168 10.1678L45.9952 8.56H44.3556V10.56ZM44.8356 12.96L42.8745 13.3522L43.457 16.2651L45.9368 14.6295L44.8356 12.96ZM49.4436 10.8L49.9931 12.723L50.0057 12.7194L50.0183 12.7157L49.4436 10.8ZM60.8676 12.048L59.4534 13.4622H59.4534L60.8676 12.048ZM60.7716 33.984L62.1858 35.3982L60.7716 33.984ZM51.0756 15.04C49.1354 15.04 47.0177 15.4047 44.7436 16.0836L45.8877 19.9164C47.9015 19.3153 49.6238 19.04 51.0756 19.04V15.04ZM43.3156 18V29.52H47.3156V18H43.3156ZM45.3156 31.52H52.5156V27.52H45.3156V31.52ZM52.5156 31.52C53.4639 31.52 54.5425 31.2816 55.3698 30.4542C56.1972 29.6269 56.4356 28.5483 56.4356 27.6H52.4356C52.4356 27.6774 52.4307 27.7321 52.4257 27.7672C52.4207 27.8021 52.4162 27.8138 52.4183 27.8075C52.4205 27.8007 52.4295 27.7762 52.4506 27.741C52.4722 27.7051 52.5023 27.6649 52.5414 27.6258C52.5806 27.5866 52.6207 27.5565 52.6566 27.535C52.6918 27.5139 52.7163 27.5049 52.7232 27.5026C52.7294 27.5006 52.7177 27.5051 52.6828 27.5101C52.6477 27.5151 52.5931 27.52 52.5156 27.52V31.52ZM56.4356 27.6V18.72H52.4356V27.6H56.4356ZM56.4356 18.72C56.4356 17.7453 56.0894 16.8254 55.3698 16.1058L52.5414 18.9342C52.5197 18.9125 52.4843 18.8669 52.4587 18.8028C52.434 18.741 52.4356 18.7054 52.4356 18.72H56.4356ZM55.3698 16.1058C54.6502 15.3862 53.7304 15.04 52.7556 15.04V19.04C52.7702 19.04 52.7346 19.0417 52.6728 19.017C52.6088 18.9913 52.5631 18.9559 52.5414 18.9342L55.3698 16.1058ZM52.7556 15.04H51.0756V19.04H52.7556V15.04ZM43.3156 36V44.16H47.3156V36H43.3156ZM45.3156 42.16H36.9156V46.16H45.3156V42.16ZM38.9156 44.16V10.56H34.9156V44.16H38.9156ZM36.9156 12.56H44.3556V8.56H36.9156V12.56ZM42.3945 10.9522L42.8745 13.3522L46.7968 12.5678L46.3168 10.1678L42.3945 10.9522ZM45.9368 14.6295C47.2885 13.738 48.6402 13.1096 49.9931 12.723L48.8942 8.87695C47.1111 9.38641 45.3907 10.198 43.7344 11.2905L45.9368 14.6295ZM50.0183 12.7157C51.5203 12.2651 52.6569 12.08 53.4756 12.08V8.08C52.1183 8.08 50.567 8.37494 48.8689 8.88435L50.0183 12.7157ZM53.4756 12.08H55.6356V8.08H53.4756V12.08ZM55.6356 12.08C57.38 12.08 58.581 12.5898 59.4534 13.4622L62.2818 10.6338C60.5303 8.8822 58.2433 8.08 55.6356 8.08V12.08ZM59.4534 13.4622C60.3258 14.3346 60.8356 15.5356 60.8356 17.28H64.8356C64.8356 14.6724 64.0334 12.3854 62.2818 10.6338L59.4534 13.4622ZM60.8356 17.28V28.32H64.8356V17.28H60.8356ZM60.8356 28.32C60.8356 30.3209 60.2747 31.6525 59.3574 32.5698L62.1858 35.3982C64.0205 33.5635 64.8356 31.1191 64.8356 28.32H60.8356ZM59.3574 32.5698C58.4808 33.4464 57.1719 34 55.1556 34V38C57.9394 38 60.3744 37.2096 62.1858 35.3982L59.3574 32.5698ZM55.1556 34H45.3156V38H55.1556V34ZM91.006 34.464L92.4202 35.8782L92.4202 35.8782L91.006 34.464ZM68.686 34.464L67.2552 35.8615L67.2717 35.8783L67.2885 35.8948L68.686 34.464ZM68.686 12.144L70.1002 13.5582L68.686 12.144ZM91.006 12.144L89.5752 13.5415L89.5917 13.5583L89.6085 13.5748L91.006 12.144ZM91.07 28.8C91.07 30.8009 90.5091 32.1325 89.5918 33.0498L92.4202 35.8782C94.2549 34.0435 95.07 31.5991 95.07 28.8H91.07ZM89.5918 33.0498C88.7152 33.9264 87.4062 34.48 85.39 34.48V38.48C88.1737 38.48 90.6088 37.6896 92.4202 35.8782L89.5918 33.0498ZM85.39 34.48H74.35V38.48H85.39V34.48ZM74.35 34.48C72.336 34.48 70.9986 33.927 70.0835 33.0332L67.2885 35.8948C69.1255 37.689 71.564 38.48 74.35 38.48V34.48ZM70.1168 33.0665C69.223 32.1515 68.67 30.814 68.67 28.8H64.67C64.67 31.586 65.461 34.0245 67.2552 35.8615L70.1168 33.0665ZM68.67 28.8V17.76H64.67V28.8H68.67ZM68.67 17.76C68.67 15.7437 69.2236 14.4348 70.1002 13.5582L67.2718 10.7298C65.4604 12.5412 64.67 14.9763 64.67 17.76H68.67ZM70.1002 13.5582C71.0175 12.6409 72.3491 12.08 74.35 12.08V8.08C71.5509 8.08 69.1065 8.89508 67.2718 10.7298L70.1002 13.5582ZM74.35 12.08H85.39V8.08H74.35V12.08ZM85.39 12.08C87.393 12.08 88.6962 12.6415 89.5752 13.5415L92.4368 10.7465C90.6278 8.89454 88.187 8.08 85.39 8.08V12.08ZM89.6085 13.5748C90.5085 14.4538 91.07 15.757 91.07 17.76H95.07C95.07 14.963 94.2555 12.5222 92.4035 10.7132L89.6085 13.5748ZM91.07 17.76V28.8H95.07V17.76H91.07ZM86.67 18.48C86.67 17.5317 86.4316 16.4531 85.6042 15.6258C84.7769 14.7984 83.6983 14.56 82.75 14.56V18.56C82.8274 18.56 82.8821 18.5649 82.9172 18.5699C82.9521 18.5749 82.9638 18.5794 82.9575 18.5774C82.9507 18.5751 82.9262 18.5661 82.891 18.545C82.8551 18.5235 82.8149 18.4934 82.7758 18.4542C82.7366 18.4151 82.7066 18.3749 82.685 18.339C82.6639 18.3038 82.6549 18.2793 82.6526 18.2725C82.6506 18.2662 82.6551 18.2779 82.6601 18.3128C82.6651 18.3479 82.67 18.4026 82.67 18.48H86.67ZM82.75 14.56H76.99V18.56H82.75V14.56ZM76.99 14.56C76.0417 14.56 74.9632 14.7984 74.1358 15.6258C73.3084 16.4531 73.07 17.5317 73.07 18.48H77.07C77.07 18.4026 77.0749 18.3479 77.0799 18.3128C77.0849 18.2779 77.0894 18.2662 77.0874 18.2725C77.0851 18.2793 77.0761 18.3038 77.055 18.339C77.0335 18.3749 77.0034 18.4151 76.9642 18.4542C76.9251 18.4934 76.8849 18.5235 76.849 18.545C76.8138 18.5661 76.7893 18.5751 76.7825 18.5774C76.7762 18.5794 76.7879 18.5749 76.8228 18.5699C76.8579 18.5649 76.9126 18.56 76.99 18.56V14.56ZM73.07 18.48V28.08H77.07V18.48H73.07ZM73.07 28.08C73.07 29.0283 73.3084 30.1069 74.1358 30.9342C74.9632 31.7616 76.0417 32 76.99 32V28C76.9126 28 76.8579 27.9951 76.8228 27.9901C76.7879 27.9851 76.7762 27.9806 76.7825 27.9826C76.7893 27.9849 76.8138 27.9939 76.849 28.015C76.8849 28.0365 76.9251 28.0666 76.9642 28.1058C77.0034 28.1449 77.0335 28.1851 77.055 28.221C77.0761 28.2562 77.0851 28.2807 77.0874 28.2875C77.0894 28.2938 77.0849 28.2821 77.0799 28.2472C77.0749 28.2121 77.07 28.1574 77.07 28.08H73.07ZM76.99 32H82.75V28H76.99V32ZM82.75 32C83.6983 32 84.7769 31.7616 85.6042 30.9342C86.4316 30.1069 86.67 29.0283 86.67 28.08H82.67C82.67 28.1574 82.6651 28.2121 82.6601 28.2472C82.6551 28.2821 82.6506 28.2938 82.6526 28.2875C82.6549 28.2807 82.6639 28.2562 82.685 28.221C82.7066 28.1851 82.7366 28.1449 82.7758 28.1058C82.8149 28.0666 82.8551 28.0365 82.891 28.015C82.9262 27.9939 82.9507 27.9849 82.9575 27.9826C82.9638 27.9806 82.9521 27.9851 82.9172 27.9901C82.8821 27.9951 82.8274 28 82.75 28V32ZM86.67 28.08V18.48H82.67V28.08H86.67ZM128.815 19.92V21.92H130.815V19.92H128.815ZM128.815 10.56V8.56H126.815V10.56H128.815ZM137.215 10.56H139.215V8.56H137.215V10.56ZM137.215 36V38H139.215V36H137.215ZM128.815 36H126.815V38H128.815V36ZM128.815 26.4H130.815V24.4H128.815V26.4ZM120.175 26.4V24.4H118.175V26.4H120.175ZM120.175 36V38H122.175V36H120.175ZM111.775 36H109.775V38H111.775V36ZM111.775 10.56V8.56H109.775V10.56H111.775ZM120.175 10.56H122.175V8.56H120.175V10.56ZM120.175 19.92H118.175V21.92H120.175V19.92ZM130.815 19.92V10.56H126.815V19.92H130.815ZM128.815 12.56H137.215V8.56H128.815V12.56ZM135.215 10.56V36H139.215V10.56H135.215ZM137.215 34H128.815V38H137.215V34ZM130.815 36V26.4H126.815V36H130.815ZM128.815 24.4H120.175V28.4H128.815V24.4ZM118.175 26.4V36H122.175V26.4H118.175ZM120.175 34H111.775V38H120.175V34ZM113.775 36V10.56H109.775V36H113.775ZM111.775 12.56H120.175V8.56H111.775V12.56ZM118.175 10.56V19.92H122.175V10.56H118.175ZM120.175 21.92H128.815V17.92H120.175V21.92ZM157.849 28.8L158.421 30.7164L159.849 30.2902V28.8H157.849ZM157.849 25.92H159.849V23.92H157.849V25.92ZM149.689 26.4L151.104 27.8142L149.689 26.4ZM149.689 29.28L148.275 30.6942L149.689 29.28ZM143.209 11.04L142.992 9.05184L141.209 9.24667V11.04H143.209ZM164.281 12.048L162.867 13.4622V13.4622L164.281 12.048ZM166.249 36V38H168.249V36H166.249ZM158.809 36L156.848 36.3922L157.17 38H158.809V36ZM158.329 33.6L160.291 33.2078L159.708 30.2949L157.228 31.9305L158.329 33.6ZM153.673 35.808L154.223 37.731L154.235 37.7274L154.248 37.7237L153.673 35.808ZM142.777 34.512L141.363 35.9262L142.777 34.512ZM142.777 21.888L144.192 23.3022V23.3022L142.777 21.888ZM157.849 19.92V21.92H159.849V19.92H157.849ZM157.369 16.8L155.955 18.2142L155.955 18.2142L157.369 16.8ZM149.257 16.608L149.106 14.6137L149.104 14.6139L149.257 16.608ZM143.209 17.04H141.209V19.1689L143.334 19.0361L143.209 17.04ZM152.089 31.76C154.03 31.76 156.147 31.3953 158.421 30.7164L157.277 26.8836C155.263 27.4847 153.541 27.76 152.089 27.76V31.76ZM159.849 28.8V25.92H155.849V28.8H159.849ZM157.849 23.92H150.889V27.92H157.849V23.92ZM150.889 23.92C149.915 23.92 148.995 24.2662 148.275 24.9858L151.104 27.8142C151.082 27.8359 151.036 27.8713 150.972 27.897C150.91 27.9217 150.875 27.92 150.889 27.92V23.92ZM148.275 24.9858C147.556 25.7054 147.209 26.6253 147.209 27.6H151.209C151.209 27.5854 151.211 27.621 151.186 27.6828C151.161 27.7469 151.125 27.7925 151.104 27.8142L148.275 24.9858ZM147.209 27.6V28.08H151.209V27.6H147.209ZM147.209 28.08C147.209 29.0547 147.556 29.9746 148.275 30.6942L151.104 27.8658C151.125 27.8875 151.161 27.9331 151.186 27.9972C151.211 28.059 151.209 28.0946 151.209 28.08H147.209ZM148.275 30.6942C148.995 31.4138 149.915 31.76 150.889 31.76V27.76C150.875 27.76 150.91 27.7583 150.972 27.783C151.036 27.8087 151.082 27.8441 151.104 27.8658L148.275 30.6942ZM150.889 31.76H152.089V27.76H150.889V31.76ZM143.427 13.0282C149.228 12.3942 154.433 12.08 159.049 12.08V8.08C154.257 8.08 148.903 8.40582 142.992 9.05184L143.427 13.0282ZM159.049 12.08C160.794 12.08 161.995 12.5898 162.867 13.4622L165.696 10.6338C163.944 8.8822 161.657 8.08 159.049 8.08V12.08ZM162.867 13.4622C163.74 14.3346 164.249 15.5356 164.249 17.28H168.249C168.249 14.6724 167.447 12.3854 165.696 10.6338L162.867 13.4622ZM164.249 17.28V36H168.249V17.28H164.249ZM166.249 34H158.809V38H166.249V34ZM160.771 35.6078L160.291 33.2078L156.368 33.9922L156.848 36.3922L160.771 35.6078ZM157.228 31.9305C155.874 32.8236 154.498 33.4725 153.099 33.8923L154.248 37.7237C156.049 37.1835 157.777 36.3604 159.431 35.2695L157.228 31.9305ZM153.124 33.885C151.655 34.3046 150.524 34.48 149.689 34.48V38.48C151.031 38.48 152.556 38.2074 154.223 37.731L153.124 33.885ZM149.689 34.48H148.009V38.48H149.689V34.48ZM148.009 34.48C146.265 34.48 145.064 33.9702 144.192 33.0978L141.363 35.9262C143.115 37.6778 145.402 38.48 148.009 38.48V34.48ZM144.192 33.0978C143.319 32.2254 142.809 31.0244 142.809 29.28H138.809C138.809 31.8876 139.612 34.1746 141.363 35.9262L144.192 33.0978ZM142.809 29.28V27.12H138.809V29.28H142.809ZM142.809 27.12C142.809 25.3756 143.319 24.1746 144.192 23.3022L141.363 20.4738C139.612 22.2254 138.809 24.5124 138.809 27.12H142.809ZM144.192 23.3022C145.064 22.4298 146.265 21.92 148.009 21.92V17.92C145.402 17.92 143.115 18.7222 141.363 20.4738L144.192 23.3022ZM148.009 21.92H157.849V17.92H148.009V21.92ZM159.849 19.92V18H155.849V19.92H159.849ZM159.849 18C159.849 17.0253 159.503 16.1054 158.784 15.3858L155.955 18.2142C155.933 18.1925 155.898 18.1469 155.872 18.0828C155.848 18.021 155.849 17.9854 155.849 18H159.849ZM158.784 15.3858C158.064 14.6662 157.144 14.32 156.169 14.32V18.32C156.184 18.32 156.148 18.3217 156.087 18.297C156.023 18.2713 155.977 18.2359 155.955 18.2142L158.784 15.3858ZM156.169 14.32C154.029 14.32 151.674 14.4187 149.106 14.6137L149.409 18.6023C151.897 18.4133 154.149 18.32 156.169 18.32V14.32ZM149.104 14.6139C146.612 14.8055 144.607 14.9487 143.085 15.0439L143.334 19.0361C144.884 18.9393 146.91 18.7944 149.411 18.6021L149.104 14.6139ZM145.209 17.04V11.04H141.209V17.04H145.209ZM193.116 35.52L193.329 37.5087L195.116 37.3175V35.52H193.116ZM172.044 34.512L170.63 35.9262L172.044 34.512ZM172.092 12.624L173.506 14.0382L172.092 12.624ZM193.116 10.56H195.116V8.56H193.116V10.56ZM193.116 17.04V19.04H195.116V17.04H193.116ZM193.116 29.28H195.116V27.1064L192.95 27.2869L193.116 29.28ZM192.904 33.5313C186.97 34.166 181.763 34.48 177.276 34.48V38.48C181.941 38.48 187.295 38.154 193.329 37.5087L192.904 33.5313ZM177.276 34.48C175.532 34.48 174.331 33.9702 173.458 33.0978L170.63 35.9262C172.382 37.6778 174.669 38.48 177.276 38.48V34.48ZM173.458 33.0978C172.586 32.2254 172.076 31.0244 172.076 29.28H168.076C168.076 31.8876 168.878 34.1746 170.63 35.9262L173.458 33.0978ZM172.076 29.28V18.24H168.076V29.28H172.076ZM172.076 18.24C172.076 16.2237 172.63 14.9148 173.506 14.0382L170.678 11.2098C168.867 13.0212 168.076 15.4563 168.076 18.24H172.076ZM173.506 14.0382C174.424 13.1209 175.755 12.56 177.756 12.56V8.56C174.957 8.56 172.513 9.37508 170.678 11.2098L173.506 14.0382ZM177.756 12.56H193.116V8.56H177.756V12.56ZM191.116 10.56V17.04H195.116V10.56H191.116ZM193.116 15.04H180.396V19.04H193.116V15.04ZM180.396 15.04C179.448 15.04 178.369 15.2784 177.542 16.1058C176.715 16.9331 176.476 18.0117 176.476 18.96H180.476C180.476 18.8826 180.481 18.8279 180.486 18.7928C180.491 18.7579 180.496 18.7462 180.494 18.7525C180.491 18.7593 180.482 18.7838 180.461 18.819C180.44 18.8549 180.41 18.8951 180.37 18.9342C180.331 18.9734 180.291 19.0035 180.255 19.025C180.22 19.0461 180.196 19.0551 180.189 19.0574C180.182 19.0594 180.194 19.0549 180.229 19.0499C180.264 19.0449 180.319 19.04 180.396 19.04V15.04ZM176.476 18.96V28.32H180.476V18.96H176.476ZM176.476 28.32C176.476 29.2947 176.822 30.2146 177.542 30.9342L180.37 28.1058C180.392 28.1275 180.428 28.1731 180.453 28.2372C180.478 28.299 180.476 28.3346 180.476 28.32H176.476ZM177.542 30.9342C178.262 31.6538 179.182 32 180.156 32V28C180.142 28 180.177 27.9983 180.239 28.023C180.303 28.0487 180.349 28.0841 180.37 28.1058L177.542 30.9342ZM180.156 32C183.123 32 187.51 31.7541 193.282 31.2731L192.95 27.2869C187.202 27.7659 182.95 28 180.156 28V32ZM191.116 29.28V35.52H195.116V29.28H191.116Z" fill="white"/>
</svg>
