<svg width="185" height="39" viewBox="0 0 185 39" fill="none" xmlns="http://www.w3.org/2000/svg">
<path opacity="0.6" d="M32.2694 36V38H34.2694V36H32.2694ZM23.6294 36H21.6294V38H23.6294V36ZM23.6294 22.32H25.6294V20.32H23.6294V22.32ZM11.6294 22.32V20.32H9.62938V22.32H11.6294ZM11.6294 36V38H13.6294V36H11.6294ZM2.98938 36H0.989375V38H2.98938V36ZM2.98938 2.4V0.399998H0.989375V2.4H2.98938ZM11.6294 2.4H13.6294V0.399998H11.6294V2.4ZM11.6294 15.6H9.62938V17.6H11.6294V15.6ZM23.6294 15.6V17.6H25.6294V15.6H23.6294ZM23.6294 2.4V0.399998H21.6294V2.4H23.6294ZM32.2694 2.4H34.2694V0.399998H32.2694V2.4ZM32.2694 34H23.6294V38H32.2694V34ZM25.6294 36V22.32H21.6294V36H25.6294ZM23.6294 20.32H11.6294V24.32H23.6294V20.32ZM9.62938 22.32V36H13.6294V22.32H9.62938ZM11.6294 34H2.98938V38H11.6294V34ZM4.98938 36V2.4H0.989375V36H4.98938ZM2.98938 4.4H11.6294V0.399998H2.98938V4.4ZM9.62938 2.4V15.6H13.6294V2.4H9.62938ZM11.6294 17.6H23.6294V13.6H11.6294V17.6ZM25.6294 15.6V2.4H21.6294V15.6H25.6294ZM23.6294 4.4H32.2694V0.399998H23.6294V4.4ZM30.2694 2.4V36H34.2694V2.4H30.2694ZM61.4279 34.464L62.8421 35.8782V35.8782L61.4279 34.464ZM39.1079 34.464L37.6771 35.8615L37.6936 35.8783L37.7104 35.8948L39.1079 34.464ZM39.1079 12.144L40.5221 13.5582L39.1079 12.144ZM61.4279 12.144L59.9971 13.5415L60.0136 13.5583L60.0304 13.5748L61.4279 12.144ZM61.4919 28.8C61.4919 30.8009 60.931 32.1325 60.0137 33.0498L62.8421 35.8782C64.6768 34.0435 65.4919 31.5991 65.4919 28.8H61.4919ZM60.0137 33.0498C59.1371 33.9264 57.8281 34.48 55.8119 34.48V38.48C58.5956 38.48 61.0307 37.6896 62.8421 35.8782L60.0137 33.0498ZM55.8119 34.48H44.7719V38.48H55.8119V34.48ZM44.7719 34.48C42.7579 34.48 41.4204 33.927 40.5054 33.0332L37.7104 35.8948C39.5473 37.689 41.9859 38.48 44.7719 38.48V34.48ZM40.5386 33.0665C39.6448 32.1515 39.0919 30.814 39.0919 28.8H35.0919C35.0919 31.586 35.8829 34.0245 37.6771 35.8615L40.5386 33.0665ZM39.0919 28.8V17.76H35.0919V28.8H39.0919ZM39.0919 17.76C39.0919 15.7437 39.6455 14.4348 40.5221 13.5582L37.6937 10.7298C35.8822 12.5412 35.0919 14.9763 35.0919 17.76H39.0919ZM40.5221 13.5582C41.4394 12.6409 42.771 12.08 44.7719 12.08V8.08C41.9727 8.08 39.5284 8.89508 37.6937 10.7298L40.5221 13.5582ZM44.7719 12.08H55.8119V8.08H44.7719V12.08ZM55.8119 12.08C57.8148 12.08 59.118 12.6415 59.9971 13.5415L62.8586 10.7465C61.0497 8.89454 58.6089 8.08 55.8119 8.08V12.08ZM60.0304 13.5748C60.9304 14.4538 61.4919 15.757 61.4919 17.76H65.4919C65.4919 14.963 64.6773 12.5222 62.8254 10.7132L60.0304 13.5748ZM61.4919 17.76V28.8H65.4919V17.76H61.4919ZM57.0919 18.48C57.0919 17.5317 56.8535 16.4531 56.0261 15.6258C55.1987 14.7984 54.1202 14.56 53.1719 14.56V18.56C53.2493 18.56 53.304 18.5649 53.339 18.5699C53.3739 18.5749 53.3857 18.5794 53.3794 18.5774C53.3726 18.5751 53.3481 18.5661 53.3129 18.545C53.277 18.5235 53.2368 18.4934 53.1977 18.4542C53.1585 18.4151 53.1284 18.3749 53.1069 18.339C53.0858 18.3038 53.0768 18.2793 53.0745 18.2725C53.0724 18.2662 53.077 18.2779 53.082 18.3128C53.087 18.3479 53.0919 18.4026 53.0919 18.48H57.0919ZM53.1719 14.56H47.4119V18.56H53.1719V14.56ZM47.4119 14.56C46.4636 14.56 45.385 14.7984 44.5577 15.6258C43.7303 16.4531 43.4919 17.5317 43.4919 18.48H47.4919C47.4919 18.4026 47.4968 18.3479 47.5018 18.3128C47.5068 18.2779 47.5113 18.2662 47.5092 18.2725C47.507 18.2793 47.498 18.3038 47.4769 18.339C47.4553 18.3749 47.4252 18.4151 47.3861 18.4542C47.3469 18.4934 47.3068 18.5235 47.2709 18.545C47.2357 18.5661 47.2112 18.5751 47.2043 18.5774C47.1981 18.5794 47.2098 18.5749 47.2447 18.5699C47.2798 18.5649 47.3344 18.56 47.4119 18.56V14.56ZM43.4919 18.48V28.08H47.4919V18.48H43.4919ZM43.4919 28.08C43.4919 29.0283 43.7303 30.1069 44.5577 30.9342C45.385 31.7616 46.4636 32 47.4119 32V28C47.3344 28 47.2798 27.9951 47.2447 27.9901C47.2098 27.9851 47.1981 27.9806 47.2043 27.9826C47.2112 27.9849 47.2357 27.9939 47.2709 28.015C47.3068 28.0365 47.3469 28.0666 47.3861 28.1058C47.4252 28.1449 47.4553 28.1851 47.4769 28.221C47.498 28.2562 47.507 28.2807 47.5092 28.2875C47.5113 28.2938 47.5068 28.2821 47.5018 28.2472C47.4968 28.2121 47.4919 28.1574 47.4919 28.08H43.4919ZM47.4119 32H53.1719V28H47.4119V32ZM53.1719 32C54.1202 32 55.1987 31.7616 56.0261 30.9342C56.8535 30.1069 57.0919 29.0283 57.0919 28.08H53.0919C53.0919 28.1574 53.087 28.2121 53.082 28.2472C53.077 28.2821 53.0724 28.2938 53.0745 28.2875C53.0768 28.2807 53.0858 28.2562 53.1069 28.221C53.1284 28.1851 53.1585 28.1449 53.1977 28.1058C53.2368 28.0666 53.277 28.0365 53.3129 28.015C53.3481 27.9939 53.3726 27.9849 53.3794 27.9826C53.3857 27.9806 53.3739 27.9851 53.339 27.9901C53.304 27.9951 53.2493 28 53.1719 28V32ZM57.0919 28.08V18.48H53.0919V28.08H57.0919ZM67.8063 36H65.8063V38H67.8063V36ZM67.8063 10.56V8.56H65.8063V10.56H67.8063ZM89.7903 12.48L88.3936 13.9116L88.4113 13.9288L88.4294 13.9456L89.7903 12.48ZM90.7982 20.544L92.4541 21.6657V21.6657L90.7982 20.544ZM87.9662 22.56L87.4101 20.6389L87.6162 24.5291L87.9662 22.56ZM91.6623 24.672L90.1674 26.0007L90.1776 26.0122L90.1879 26.0234L91.6623 24.672ZM91.2303 34.08L89.8509 32.6317L89.8422 32.64L89.8336 32.6484L91.2303 34.08ZM84.3662 26.64L82.952 28.0542L82.952 28.0542L84.3662 26.64ZM76.2063 26.16V24.16H74.2063V26.16H76.2063ZM76.2063 30.24H74.2063V32.24H76.2063V30.24ZM84.3662 29.76L82.952 28.3458L82.952 28.3458L84.3662 29.76ZM82.9263 16.8L81.512 18.2142L81.512 18.2142L82.9263 16.8ZM76.2063 16.32V14.32H74.2063V16.32H76.2063ZM76.2063 20.64H74.2063V22.64H76.2063V20.64ZM82.9263 20.16L81.512 18.7458V18.7458L82.9263 20.16ZM86.0462 34H67.8063V38H86.0462V34ZM69.8063 36V10.56H65.8063V36H69.8063ZM67.8063 12.56H84.6062V8.56H67.8063V12.56ZM84.6062 12.56C86.3235 12.56 87.5182 13.0575 88.3936 13.9116L91.1869 11.0484C89.4383 9.34253 87.177 8.56 84.6062 8.56V12.56ZM88.4294 13.9456C89.4413 14.8853 89.8063 15.7874 89.8063 16.704H93.8063C93.8063 14.4846 92.8272 12.5707 91.1512 11.0144L88.4294 13.9456ZM89.8063 16.704C89.8063 17.9941 89.5303 18.8497 89.1424 19.4223L92.4541 21.6657C93.4102 20.2543 93.8063 18.5499 93.8063 16.704H89.8063ZM89.1424 19.4223C88.748 20.0046 88.2049 20.4088 87.4101 20.6389L88.5224 24.4811C90.1596 24.0072 91.5045 23.0674 92.4541 21.6657L89.1424 19.4223ZM87.6162 24.5291C88.5885 24.702 89.4249 25.1654 90.1674 26.0007L93.1571 23.3433C91.8516 21.8746 90.224 20.93 88.3163 20.5909L87.6162 24.5291ZM90.1879 26.0234C90.8327 26.7268 91.2463 27.7405 91.2463 29.28H95.2463C95.2463 26.9795 94.6038 24.9212 93.1366 23.3205L90.1879 26.0234ZM91.2463 29.28C91.2463 30.6739 90.7834 31.7436 89.8509 32.6317L92.6096 35.5283C94.3651 33.8564 95.2463 31.7261 95.2463 29.28H91.2463ZM89.8336 32.6484C88.9582 33.5025 87.7635 34 86.0462 34V38C88.617 38 90.8783 37.2175 92.6269 35.5116L89.8336 32.6484ZM86.8463 27.84C86.8463 26.8653 86.5001 25.9454 85.7805 25.2258L82.952 28.0542C82.9304 28.0325 82.8949 27.9869 82.8693 27.9228C82.8446 27.861 82.8463 27.8254 82.8463 27.84H86.8463ZM85.7805 25.2258C85.0609 24.5062 84.141 24.16 83.1663 24.16V28.16C83.1808 28.16 83.1452 28.1617 83.0835 28.137C83.0194 28.1113 82.9737 28.0759 82.952 28.0542L85.7805 25.2258ZM83.1663 24.16H76.2063V28.16H83.1663V24.16ZM74.2063 26.16V30.24H78.2063V26.16H74.2063ZM76.2063 32.24H83.1663V28.24H76.2063V32.24ZM83.1663 32.24C84.141 32.24 85.0609 31.8938 85.7805 31.1742L82.952 28.3458C82.9737 28.3241 83.0194 28.2887 83.0835 28.263C83.1452 28.2383 83.1808 28.24 83.1663 28.24V32.24ZM85.7805 31.1742C86.5001 30.4546 86.8463 29.5347 86.8463 28.56H82.8463C82.8463 28.5746 82.8446 28.539 82.8693 28.4772C82.8949 28.4131 82.9304 28.3675 82.952 28.3458L85.7805 31.1742ZM86.8463 28.56V27.84H82.8463V28.56H86.8463ZM85.4062 18C85.4062 17.0253 85.0601 16.1054 84.3405 15.3858L81.512 18.2142C81.4904 18.1925 81.4549 18.1469 81.4293 18.0828C81.4046 18.021 81.4062 17.9854 81.4062 18H85.4062ZM84.3405 15.3858C83.6209 14.6662 82.701 14.32 81.7262 14.32V18.32C81.7408 18.32 81.7052 18.3217 81.6435 18.297C81.5794 18.2713 81.5337 18.2359 81.512 18.2142L84.3405 15.3858ZM81.7262 14.32H76.2063V18.32H81.7262V14.32ZM74.2063 16.32V20.64H78.2063V16.32H74.2063ZM76.2063 22.64H81.7262V18.64H76.2063V22.64ZM81.7262 22.64C82.701 22.64 83.6209 22.2938 84.3405 21.5742L81.512 18.7458C81.5337 18.7241 81.5794 18.6887 81.6435 18.663C81.7052 18.6383 81.7408 18.64 81.7262 18.64V22.64ZM84.3405 21.5742C85.0601 20.8546 85.4062 19.9347 85.4062 18.96H81.4062C81.4062 18.9746 81.4046 18.939 81.4293 18.8772C81.4549 18.8131 81.4904 18.7675 81.512 18.7458L84.3405 21.5742ZM85.4062 18.96V18H81.4062V18.96H85.4062ZM113.147 10.56V8.56H112.002L111.422 9.54856L113.147 10.56ZM122.028 10.56H124.028V8.56H122.028V10.56ZM122.028 36V38H124.028V36H122.028ZM113.628 36H111.628V38H113.628V36ZM113.628 22.08H115.628V14.7135L111.902 21.0686L113.628 22.08ZM105.467 36V38H106.613L107.193 37.0114L105.467 36ZM96.5875 36H94.5875V38H96.5875V36ZM96.5875 10.56V8.56H94.5875V10.56H96.5875ZM104.988 10.56H106.988V8.56H104.988V10.56ZM104.988 24.48H102.988V31.8465L106.713 25.4914L104.988 24.48ZM113.147 12.56H122.028V8.56H113.147V12.56ZM120.028 10.56V36H124.028V10.56H120.028ZM122.028 34H113.628V38H122.028V34ZM115.628 36V22.08H111.628V36H115.628ZM111.902 21.0686L103.742 34.9886L107.193 37.0114L115.353 23.0914L111.902 21.0686ZM105.467 34H96.5875V38H105.467V34ZM98.5875 36V10.56H94.5875V36H98.5875ZM96.5875 12.56H104.988V8.56H96.5875V12.56ZM102.988 10.56V24.48H106.988V10.56H102.988ZM106.713 25.4914L114.873 11.5714L111.422 9.54856L103.262 23.4686L106.713 25.4914ZM143.862 19.92V21.92H145.862V19.92H143.862ZM143.862 10.56V8.56H141.862V10.56H143.862ZM152.262 10.56H154.262V8.56H152.262V10.56ZM152.262 36V38H154.262V36H152.262ZM143.862 36H141.862V38H143.862V36ZM143.862 26.4H145.862V24.4H143.862V26.4ZM135.222 26.4V24.4H133.222V26.4H135.222ZM135.222 36V38H137.222V36H135.222ZM126.822 36H124.822V38H126.822V36ZM126.822 10.56V8.56H124.822V10.56H126.822ZM135.222 10.56H137.222V8.56H135.222V10.56ZM135.222 19.92H133.222V21.92H135.222V19.92ZM145.862 19.92V10.56H141.862V19.92H145.862ZM143.862 12.56H152.262V8.56H143.862V12.56ZM150.262 10.56V36H154.262V10.56H150.262ZM152.262 34H143.862V38H152.262V34ZM145.862 36V26.4H141.862V36H145.862ZM143.862 24.4H135.222V28.4H143.862V24.4ZM133.222 26.4V36H137.222V26.4H133.222ZM135.222 34H126.822V38H135.222V34ZM128.822 36V10.56H124.822V36H128.822ZM126.822 12.56H135.222V8.56H126.822V12.56ZM133.222 10.56V19.92H137.222V10.56H133.222ZM135.222 21.92H143.862V17.92H135.222V21.92ZM173.616 10.56V8.56H172.47L171.891 9.54856L173.616 10.56ZM182.496 10.56H184.496V8.56H182.496V10.56ZM182.496 36V38H184.496V36H182.496ZM174.096 36H172.096V38H174.096V36ZM174.096 22.08H176.096V14.7135L172.371 21.0686L174.096 22.08ZM165.936 36V38H167.082L167.662 37.0114L165.936 36ZM157.056 36H155.056V38H157.056V36ZM157.056 10.56V8.56H155.056V10.56H157.056ZM165.456 10.56H167.456V8.56H165.456V10.56ZM165.456 24.48H163.456V31.8465L167.182 25.4914L165.456 24.48ZM173.616 12.56H182.496V8.56H173.616V12.56ZM180.496 10.56V36H184.496V10.56H180.496ZM182.496 34H174.096V38H182.496V34ZM176.096 36V22.08H172.096V36H176.096ZM172.371 21.0686L164.211 34.9886L167.662 37.0114L175.822 23.0914L172.371 21.0686ZM165.936 34H157.056V38H165.936V34ZM159.056 36V10.56H155.056V36H159.056ZM157.056 12.56H165.456V8.56H157.056V12.56ZM163.456 10.56V24.48H167.456V10.56H163.456ZM167.182 25.4914L175.342 11.5714L171.891 9.54856L163.731 23.4686L167.182 25.4914Z" fill="white"/>
</svg>
